<svg xmlns="http://www.w3.org/2000/svg" xml:space="preserve" width="16" height="16" data-version="2">
    <path fill="#db0827" d="M3.25 8.46V6.99h1.54q.28 0 .52-.11.24-.12.38-.35.14-.23.14-.57 0-.34-.14-.58-.14-.24-.38-.35-.24-.12-.52-.12H3.25V3.45h1.88q.75 0 1.35.3.61.31.96.86.35.56.35 1.35 0 .77-.35 1.33-.35.57-.96.87-.6.3-1.35.3Zm-1.56 2.79v-7.8h1.96v7.8Z" paint-order="stroke"/>
    <rect width="6.1" height="7.8" x="-3.05" y="-3.9" fill="none" rx="0" ry="0" transform="translate(5.24 7.85)"/>
    <path fill="#db0827" d="M7.55 11.25v-7.8h1.97v7.8Zm4.77 0v-7.8h1.97v7.8ZM8.67 8.08V6.43h4.37v1.65Z" paint-order="stroke"/>
    <rect width="6.74" height="7.8" x="-3.37" y="-3.9" fill="none" rx="0" ry="0" transform="translate(11.42 7.85)"/>
</svg>
