<svg version="1.1" id="Layer_1" xmlns="http://www.w3.org/2000/svg" xmlns:xlink="http://www.w3.org/1999/xlink" x="0px" y="0px"
	 width="100%" viewBox="0 0 2000 1500" enable-background="new 0 0 2000 1500" xml:space="preserve">
<path fill="#DB0B2A" opacity="1.000000" stroke="none" 
	d="
M1351.000000,1080.129639 
	C1066.525146,1080.129639 782.550232,1080.129639 498.575348,1080.129517 
	C399.836761,1080.129517 315.548187,1022.453186 280.223969,930.393799 
	C270.414764,904.829834 265.760803,878.187012 265.772461,850.765869 
	C265.816345,747.442200 265.311401,644.114319 266.112885,540.796570 
	C266.535156,486.359711 286.055878,438.347046 321.474121,397.070068 
	C355.583679,357.318207 398.570465,331.962006 449.867584,321.626770 
	C465.747375,318.427338 482.251221,317.018616 498.471039,317.006165 
	C833.441162,316.749237 1168.413086,316.250641 1503.380981,317.156891 
	C1603.253174,317.427063 1674.656860,365.851837 1717.308716,455.992828 
	C1729.678101,482.134369 1735.861084,510.257263 1735.952637,539.192505 
	C1736.287720,645.181335 1737.854980,751.210266 1735.540039,857.149475 
	C1733.704834,941.137634 1693.322754,1005.213501 1621.608398,1048.821777 
	C1585.830933,1070.577271 1546.375488,1080.248779 1504.483154,1080.156372 
	C1453.489014,1080.043945 1402.494385,1080.129639 1351.000000,1080.129639 
M1376.500000,1072.820557 
	C1417.997437,1072.820557 1459.498779,1073.138306 1500.990479,1072.650146 
	C1515.751831,1072.476440 1530.727783,1071.610962 1545.199097,1068.894653 
	C1615.877441,1055.627441 1668.364990,1016.723083 1702.859985,953.842529 
	C1721.078613,920.632141 1728.889771,884.617859 1728.875977,846.813477 
	C1728.840454,749.318176 1728.922729,651.822815 1728.785278,554.327698 
	C1728.769409,543.024414 1728.278809,531.650940 1726.962646,520.432678 
	C1721.375732,472.812073 1702.241821,431.143799 1669.579102,396.140747 
	C1624.568604,347.905121 1568.551025,324.225159 1502.675293,324.211487 
	C1168.858032,324.142120 835.040833,324.163879 501.223633,324.251892 
	C490.751709,324.254669 480.220306,324.805389 469.818634,325.993652 
	C425.792450,331.022949 386.553986,347.785461 352.930939,376.544708 
	C299.687592,422.085999 273.288940,480.398193 273.156036,550.393982 
	C272.970612,648.055603 273.051300,745.717896 273.188629,843.379639 
	C273.204315,854.515747 273.664307,865.730408 275.026581,876.771973 
	C281.941437,932.818787 306.733429,979.742004 349.003723,1017.036377 
	C392.033356,1055.000610 442.805115,1072.832397 500.042267,1072.828857 
	C791.861511,1072.810913 1083.680786,1072.820557 1376.500000,1072.820557 
z"/>
<path fill="#DC0F2D" opacity="1.000000" stroke="none" 
	d="
M1052.822754,1148.210449 
	C1059.034912,1156.540405 1059.519775,1165.187012 1054.822876,1173.778931 
	C1049.095825,1184.254761 1034.700195,1184.418091 1028.544556,1174.173462 
	C1023.991699,1166.596436 1023.992065,1158.553833 1028.322021,1150.890747 
	C1033.447754,1141.819336 1044.170166,1140.662476 1052.822754,1148.210449 
M1035.140747,1166.844604 
	C1036.169067,1170.573608 1037.654541,1174.017578 1042.404541,1173.296997 
	C1046.954102,1172.606934 1047.854736,1168.845947 1048.028931,1165.099609 
	C1048.165405,1162.166626 1048.366577,1158.880127 1047.215454,1156.353638 
	C1046.242554,1154.218506 1043.455566,1151.812256 1041.312256,1151.651978 
	C1039.568970,1151.521606 1036.672729,1154.208008 1035.933228,1156.243164 
	C1034.855469,1159.209229 1035.254272,1162.711792 1035.140747,1166.844604 
z"/>
<path fill="#DC0C2A" opacity="1.000000" stroke="none" 
	d="
M907.783081,1143.883911 
	C909.082214,1146.221069 909.903931,1148.552246 911.014648,1151.703369 
	C904.060425,1151.703369 898.324097,1151.703369 892.331787,1151.703369 
	C892.331787,1153.968628 892.331787,1155.716187 892.331787,1157.885498 
	C897.389648,1157.885498 902.478394,1157.885498 907.994385,1157.885498 
	C907.994385,1160.652588 907.994385,1163.014038 907.994385,1165.779541 
	C902.966980,1165.779541 897.879761,1165.779541 892.427979,1165.779541 
	C892.427979,1168.206787 892.427979,1170.268799 892.427979,1172.950806 
	C898.072144,1172.950806 903.951965,1172.950806 910.026978,1172.950806 
	C910.026978,1175.844116 910.026978,1178.127319 910.026978,1180.723389 
	C901.151367,1180.723389 892.255798,1180.723389 883.064758,1180.723389 
	C883.064758,1168.632202 883.064758,1156.577759 883.064758,1143.878052 
	C891.127380,1143.878052 899.216492,1143.878052 907.783081,1143.883911 
z"/>
<path fill="#DC0F2D" opacity="1.000000" stroke="none" 
	d="
M935.884094,1153.786377 
	C933.601562,1152.833740 931.744629,1151.447632 929.739197,1151.182129 
	C928.274658,1150.988037 926.614685,1152.269165 925.041809,1152.892700 
	C926.042969,1154.218506 926.788513,1155.957153 928.105652,1156.772583 
	C930.046021,1157.973999 932.435669,1158.422485 934.559937,1159.359497 
	C940.319763,1161.899536 942.612000,1165.705688 942.009155,1171.501587 
	C941.480896,1176.580322 937.980469,1179.997314 932.068665,1181.108887 
	C924.992615,1182.439331 918.533325,1181.491821 913.334717,1176.118652 
	C915.322754,1174.151245 917.159912,1172.333008 918.672424,1170.836182 
	C921.725342,1171.828125 924.898743,1173.228638 928.211304,1173.757812 
	C929.576355,1173.975830 931.240601,1172.321045 932.768799,1171.518066 
	C931.777832,1170.143555 931.070251,1168.289673 929.733704,1167.499023 
	C927.333862,1166.079590 924.516479,1165.387329 921.945312,1164.231567 
	C917.333435,1162.158447 915.120483,1158.534912 915.549927,1153.468506 
	C915.982361,1148.365845 918.963623,1145.276489 923.742737,1143.942749 
	C930.462036,1142.067749 936.509521,1143.328125 942.173157,1148.326416 
	C940.044006,1150.304688 938.145020,1152.068970 935.884094,1153.786377 
z"/>
<path fill="#DC0F2D" opacity="1.000000" stroke="none" 
	d="
M1064.572754,1171.620850 
	C1068.304321,1167.780640 1071.847046,1164.254395 1075.241333,1160.590698 
	C1077.326050,1158.340454 1079.547363,1155.578125 1076.666260,1152.776123 
	C1073.647217,1149.839844 1070.550415,1151.426392 1067.961670,1154.048218 
	C1067.409058,1154.607910 1066.908203,1155.218994 1066.171875,1156.043335 
	C1064.136353,1154.253540 1062.290649,1152.630859 1060.202759,1150.795166 
	C1063.695068,1145.065308 1068.771606,1142.901733 1074.919067,1143.189575 
	C1080.028442,1143.429077 1084.379395,1145.354736 1086.264282,1150.635010 
	C1088.344849,1156.462769 1086.600586,1161.428711 1082.421753,1165.668823 
	C1080.257202,1167.865112 1077.933228,1169.904175 1074.618408,1173.010254 
	C1079.921875,1173.010254 1083.647217,1173.010254 1087.656006,1173.010254 
	C1087.656006,1175.737549 1087.656006,1178.002808 1087.656006,1180.660889 
	C1078.804932,1180.660889 1069.761108,1180.660889 1060.711792,1180.660889 
	C1058.691895,1176.398438 1062.037964,1174.356323 1064.572754,1171.620850 
z"/>
<path fill="#DC0F2D" opacity="1.000000" stroke="none" 
	d="
M1004.294312,1166.289307 
	C1006.503174,1163.997559 1008.984558,1162.234375 1010.258362,1159.831177 
	C1011.315857,1157.836304 1012.018311,1154.371216 1010.983093,1152.830811 
	C1009.146484,1150.097900 1005.943848,1151.102539 1003.527832,1153.044312 
	C1002.513123,1153.859985 1001.781860,1155.028198 1000.801636,1156.176758 
	C998.637756,1154.262573 996.791626,1152.629639 994.740540,1150.815308 
	C998.137451,1144.984497 1003.281433,1142.962402 1009.418701,1143.180908 
	C1014.364746,1143.356934 1018.671204,1145.258301 1020.617981,1150.143799 
	C1022.961487,1156.024902 1021.339233,1161.264404 1016.919922,1165.634521 
	C1014.704041,1167.825806 1012.315613,1169.842773 1008.963684,1172.883423 
	C1014.202087,1172.883423 1017.917786,1172.883423 1022.011353,1172.883423 
	C1022.011353,1175.695557 1022.011353,1178.081909 1022.011353,1180.762817 
	C1013.138672,1180.762817 1004.241272,1180.762817 995.098633,1180.762817 
	C993.639282,1173.156616 1000.999390,1171.174316 1004.294312,1166.289307 
z"/>
<path fill="#DC0C2A" opacity="1.000000" stroke="none" 
	d="
M1104.407349,1159.574829 
	C1103.489990,1161.542114 1102.766968,1163.179810 1101.842651,1165.273438 
	C1104.009033,1165.273438 1105.722778,1165.273438 1107.673218,1165.273438 
	C1107.809448,1163.252686 1107.941284,1161.295044 1108.097046,1158.984863 
	C1110.999268,1158.984863 1113.858521,1158.984863 1116.660645,1158.984863 
	C1117.879639,1161.397095 1115.180908,1165.361084 1119.987061,1166.319580 
	C1120.437134,1166.409302 1120.504761,1172.625122 1119.978149,1172.750244 
	C1114.967651,1173.941528 1117.939697,1178.007812 1116.656738,1180.746094 
	C1114.065063,1180.746094 1111.323486,1180.746094 1108.179443,1180.746094 
	C1108.021851,1178.614258 1107.856934,1176.384766 1107.650757,1173.595703 
	C1101.978882,1173.595703 1096.420166,1173.595703 1089.981689,1173.595703 
	C1090.482422,1170.728394 1090.449341,1168.377319 1091.314819,1166.424438 
	C1094.269775,1159.756836 1097.619385,1153.265503 1100.666382,1146.636963 
	C1103.147095,1141.240234 1107.716553,1145.121704 1112.299927,1143.257080 
	C1109.383057,1149.315063 1106.992432,1154.280151 1104.407349,1159.574829 
z"/>
<path fill="#DB0A29" opacity="1.000000" stroke="none" 
	d="
M965.285645,1160.084717 
	C965.285706,1167.191162 965.285706,1173.810669 965.285706,1180.729370 
	C962.249390,1180.729370 959.486511,1180.729370 956.136963,1180.729370 
	C956.136963,1171.433350 956.136963,1161.918457 956.136963,1152.022949 
	C952.154175,1152.022949 948.733276,1152.022949 944.973694,1152.022949 
	C944.973694,1149.257080 944.973694,1146.867676 944.973694,1144.176147 
	C955.315308,1144.176147 965.715454,1144.176147 976.485229,1144.176147 
	C976.485229,1146.489868 976.485229,1148.875610 976.485229,1151.780762 
	C973.013306,1151.780762 969.444397,1151.780762 965.285645,1151.780762 
	C965.285645,1154.720093 965.285645,1157.158936 965.285645,1160.084717 
z"/>
<path fill="#DC0F2D" opacity="1.000000" stroke="none" 
	d="
M989.315918,1180.183350 
	C985.526489,1182.545166 982.343872,1182.105347 981.065247,1178.123657 
	C980.519470,1176.423950 981.493774,1173.200317 982.878967,1172.209717 
	C984.246399,1171.231812 987.512756,1171.447266 989.041382,1172.479248 
	C991.739563,1174.300781 991.572205,1177.266724 989.315918,1180.183350 
z"/>
<path fill="#FFFCFC" opacity="1.000000" stroke="none" 
	d="
M1376.000000,1072.820557 
	C1083.680786,1072.820557 791.861511,1072.810913 500.042267,1072.828857 
	C442.805115,1072.832397 392.033356,1055.000610 349.003723,1017.036377 
	C306.733429,979.742004 281.941437,932.818787 275.026581,876.771973 
	C273.664307,865.730408 273.204315,854.515747 273.188629,843.379639 
	C273.051300,745.717896 272.970612,648.055603 273.156036,550.393982 
	C273.288940,480.398193 299.687592,422.085999 352.930939,376.544708 
	C386.553986,347.785461 425.792450,331.022949 469.818634,325.993652 
	C480.220306,324.805389 490.751709,324.254669 501.223633,324.251892 
	C835.040833,324.163879 1168.858032,324.142120 1502.675293,324.211487 
	C1568.551025,324.225159 1624.568604,347.905121 1669.579102,396.140747 
	C1702.241821,431.143799 1721.375732,472.812073 1726.962646,520.432678 
	C1728.278809,531.650940 1728.769409,543.024414 1728.785278,554.327698 
	C1728.922729,651.822815 1728.840454,749.318176 1728.875977,846.813477 
	C1728.889771,884.617859 1721.078613,920.632141 1702.859985,953.842529 
	C1668.364990,1016.723083 1615.877441,1055.627441 1545.199097,1068.894653 
	C1530.727783,1071.610962 1515.751831,1072.476440 1500.990479,1072.650146 
	C1459.498779,1073.138306 1417.997437,1072.820557 1376.000000,1072.820557 
M1575.002930,1029.630493 
	C1648.193970,999.647888 1693.241699,932.593689 1693.356567,852.847168 
	C1693.503540,750.848022 1693.378174,648.848389 1693.406128,546.848999 
	C1693.410767,529.947876 1691.738770,513.267090 1687.371216,496.909027 
	C1664.967651,413.001465 1591.635986,356.654480 1504.101440,356.630585 
	C1167.936768,356.538727 831.772034,356.597778 495.607330,356.579315 
	C478.869476,356.578400 462.356323,358.307251 446.188019,362.698029 
	C362.448608,385.438782 306.232147,458.450226 306.087585,545.136658 
	C305.915833,648.135742 305.885406,751.135986 306.240448,854.134155 
	C306.287750,867.856201 307.583771,881.882263 310.632050,895.235535 
	C330.749603,983.362793 405.253998,1042.836670 495.517670,1042.868652 
	C831.682312,1042.988159 1167.847046,1042.922119 1504.011719,1042.905029 
	C1528.221313,1042.903687 1551.704346,1038.810791 1575.002930,1029.630493 
z"/>
<path fill="#DB0827" opacity="1.000000" stroke="none" 
	d="
M1574.642822,1029.769531 
	C1551.704346,1038.810791 1528.221313,1042.903687 1504.011719,1042.905029 
	C1167.847046,1042.922119 831.682312,1042.988159 495.517670,1042.868652 
	C405.253998,1042.836670 330.749603,983.362793 310.632050,895.235535 
	C307.583771,881.882263 306.287750,867.856201 306.240448,854.134155 
	C305.885406,751.135986 305.915833,648.135742 306.087585,545.136658 
	C306.232147,458.450226 362.448608,385.438782 446.188019,362.698029 
	C462.356323,358.307251 478.869476,356.578400 495.607330,356.579315 
	C831.772034,356.597778 1167.936768,356.538727 1504.101440,356.630585 
	C1591.635986,356.654480 1664.967651,413.001465 1687.371216,496.909027 
	C1691.738770,513.267090 1693.410767,529.947876 1693.406128,546.848999 
	C1693.378174,648.848389 1693.503540,750.848022 1693.356567,852.847168 
	C1693.241699,932.593689 1648.193970,999.647888 1574.642822,1029.769531 
M1079.651123,757.841797 
	C1078.446655,754.744141 1076.987061,751.716736 1076.109375,748.529053 
	C1075.228271,745.328857 1073.437500,744.591064 1070.329468,744.680847 
	C1062.671021,744.902161 1054.993286,744.968567 1047.340942,744.659485 
	C1043.701050,744.512512 1042.205444,745.829773 1040.936035,749.135193 
	C1026.041260,787.918335 1010.978882,826.637085 995.949646,865.368652 
	C995.283997,867.084229 994.511658,868.758423 993.589783,870.918640 
	C981.112976,853.916626 969.085571,837.527100 956.905945,820.930176 
	C960.091675,819.761658 962.481201,819.038452 964.743835,818.030273 
	C978.859924,811.740479 987.310486,801.283813 988.021179,785.470825 
	C988.765991,768.899414 981.469788,756.658997 966.531555,749.862976 
	C960.202942,746.983948 952.854614,745.302002 945.898132,745.049683 
	C927.426514,744.379578 908.915833,744.779114 890.420715,744.777954 
	C889.665588,744.777954 888.910522,745.029541 888.278503,745.141968 
	C888.278503,788.570923 888.278503,831.642639 888.278503,874.642700 
	C899.295044,874.642700 910.016418,874.642700 921.320923,874.642700 
	C921.320923,856.961731 921.320923,839.636719 921.320923,822.311707 
	C923.503357,823.526367 924.709473,825.037659 925.791321,826.633179 
	C935.973145,841.648987 946.093323,856.707092 956.365601,871.660583 
	C957.350159,873.093750 959.236084,874.844055 960.718628,874.858154 
	C982.368469,875.064331 1004.020874,874.999695 1025.817749,874.999695 
	C1028.102173,868.568665 1030.466675,862.356812 1032.481934,856.033691 
	C1033.366333,853.258850 1034.505859,852.049072 1037.677246,852.096191 
	C1051.337524,852.299194 1065.003906,852.279785 1078.665039,852.105103 
	C1081.562012,852.068054 1082.771240,853.095032 1083.601929,855.694458 
	C1085.664185,862.147034 1087.976196,868.519775 1090.135498,874.773438 
	C1101.650513,874.773438 1112.744385,874.773438 1124.435181,874.773438 
	C1109.495117,835.773865 1094.707520,797.172119 1079.651123,757.841797 
M826.805542,632.314819 
	C833.112000,612.412903 839.418457,592.510986 845.862610,572.174622 
	C836.211060,572.174622 827.219055,572.374084 818.243408,572.078125 
	C814.567139,571.956848 813.074585,573.168457 812.074463,576.649231 
	C805.786438,598.531921 799.278381,620.351624 792.814758,642.183655 
	C792.275452,644.005371 791.526978,645.765015 790.604065,648.299438 
	C783.359924,623.642456 776.327393,599.903015 769.471802,576.112671 
	C768.650696,573.263245 767.652283,571.980408 764.452209,572.093323 
	C757.137817,572.351379 749.808105,572.174805 742.072937,572.174805 
	C734.673889,597.339661 727.299805,622.419922 719.626770,648.516724 
	C711.823547,622.294312 704.357178,597.203979 697.018494,572.542480 
	C685.845093,572.542480 675.464966,572.542480 665.002808,572.542480 
	C665.042847,573.403198 664.960632,573.923340 665.102966,574.372131 
	C678.367798,616.189880 691.622253,658.010925 705.059875,699.773071 
	C705.473389,701.058228 707.762024,702.478455 709.241455,702.553467 
	C715.390320,702.865051 721.576904,702.446045 727.724060,702.774109 
	C731.406860,702.970581 732.901917,701.689941 733.894287,698.185303 
	C740.142395,676.118103 746.621216,654.116272 753.036865,632.096619 
	C753.557312,630.310364 754.176514,628.552856 755.179321,625.455444 
	C762.615112,650.739624 769.701660,674.453735 776.471680,698.257935 
	C777.517334,701.934814 779.127747,702.923523 782.676208,702.758179 
	C788.494995,702.487061 794.346069,702.475891 800.163086,702.765564 
	C803.472778,702.930420 804.760132,701.647095 805.701050,698.636414 
	C812.542114,676.747864 819.552795,654.912476 826.805542,632.314819 
M1110.500000,572.175781 
	C1098.043823,572.175781 1085.587646,572.175781 1072.829834,572.175781 
	C1072.829834,615.754150 1072.829834,658.946960 1072.829834,702.683289 
	C1090.338745,702.683289 1107.602661,702.827271 1124.861938,702.605957 
	C1130.988281,702.527405 1137.187500,702.021973 1143.208862,700.920593 
	C1172.942505,695.481750 1193.905518,671.858276 1195.816772,642.013306 
	C1197.809204,610.900452 1180.152100,585.179565 1150.574951,575.833008 
	C1137.780029,571.789795 1124.636475,572.190369 1110.500000,572.175781 
M757.726990,744.789978 
	C757.184143,746.469482 756.171143,748.147949 756.167419,749.828613 
	C756.078796,789.956604 756.098511,830.084839 756.098511,870.213013 
	C756.098511,871.662903 756.098511,873.112793 756.098511,875.001587 
	C760.690552,875.001587 764.814453,875.060486 768.936157,874.991333 
	C787.065979,874.687195 805.329773,875.632324 823.296448,873.750732 
	C860.767883,869.826477 885.660645,834.623108 878.494446,797.562195 
	C872.636230,767.265930 847.411438,745.793884 816.129089,745.040527 
	C796.991577,744.579651 777.836914,744.828247 757.726990,744.789978 
M534.982605,671.473816 
	C550.242432,695.842346 572.754517,706.122803 600.885925,704.865906 
	C643.424805,702.965271 673.242615,663.239258 663.473389,621.807007 
	C655.947815,589.890442 629.185425,569.817444 594.353027,569.963684 
	C541.039673,570.187500 509.242249,623.889709 534.982605,671.473816 
M1232.300781,702.687195 
	C1233.762573,702.612671 1235.224487,702.538147 1237.288574,702.432922 
	C1237.288574,684.842590 1237.288574,667.501343 1237.288574,650.160095 
	C1237.704712,649.981140 1238.120850,649.802185 1238.536987,649.623169 
	C1239.590698,650.932983 1240.740723,652.177368 1241.683105,653.562805 
	C1249.639160,665.261719 1258.416626,676.511353 1265.232178,688.843933 
	C1271.395020,699.995789 1279.083496,704.853760 1291.807373,702.867371 
	C1298.375122,701.842102 1305.234741,702.687195 1313.003662,702.687195 
	C1299.321655,684.024597 1286.371826,666.360718 1273.212891,648.411621 
	C1284.298828,645.225891 1293.398926,640.080261 1299.304810,630.437988 
	C1313.858521,606.677734 1298.065063,575.929260 1269.080933,573.203552 
	C1252.553833,571.649292 1235.806396,572.421814 1219.157715,572.183105 
	C1214.370239,572.114441 1209.580811,572.172607 1204.591553,572.172607 
	C1204.591553,615.881897 1204.591553,659.077820 1204.591553,702.687073 
	C1213.734741,702.687073 1222.536377,702.687073 1232.300781,702.687195 
M562.500183,822.049744 
	C571.109009,822.049744 579.717834,822.049744 588.859863,822.049744 
	C588.859863,839.955444 588.859863,857.332581 588.859863,874.793457 
	C599.994202,874.793457 610.584839,874.793457 621.290710,874.793457 
	C621.290710,831.403748 621.290710,788.239075 621.290710,745.080811 
	C610.307678,745.080811 599.726624,745.080811 588.631714,745.080811 
	C588.631714,761.606750 588.631714,777.838013 588.631714,794.237244 
	C572.864441,794.237244 557.617432,794.237244 541.889771,794.237244 
	C541.889771,777.756165 541.889771,761.512390 541.889771,745.081055 
	C530.701172,745.081055 519.995422,745.081055 509.169983,745.081055 
	C509.169983,788.445862 509.169983,831.508545 509.169983,874.726379 
	C520.104614,874.726379 530.820557,874.726379 542.056641,874.726379 
	C542.056641,857.062561 542.056641,839.684143 542.056641,822.049744 
	C548.884277,822.049744 555.192322,822.049744 562.500183,822.049744 
M997.500000,572.173584 
	C984.726013,572.173584 971.952026,572.173584 959.233704,572.173584 
	C959.233704,615.990906 959.233704,659.190979 959.233704,702.319336 
	C970.220520,702.319336 980.794067,702.319336 992.066833,702.319336 
	C992.066833,684.662964 992.066833,667.363220 992.066833,650.063538 
	C992.475525,649.936340 992.884216,649.809143 993.292908,649.681946 
	C994.307373,651.100952 995.353149,652.498840 996.331604,653.942261 
	C1006.604980,669.098022 1016.836304,684.282532 1027.186523,699.385559 
	C1028.118286,700.745178 1029.780029,702.504028 1031.135376,702.532654 
	C1042.882324,702.781128 1054.636719,702.675781 1067.403076,702.675781 
	C1053.808716,684.136841 1040.797363,666.393005 1027.663452,648.481995 
	C1030.419067,647.517151 1032.660767,646.862793 1034.798462,645.961792 
	C1045.413208,641.487915 1053.386475,634.357361 1057.056030,623.139771 
	C1064.184570,601.348694 1051.921265,579.328430 1028.780029,574.281067 
	C1018.998779,572.147583 1008.611633,572.791870 997.500000,572.173584 
M920.499878,622.741089 
	C908.709351,622.741089 896.918762,622.741089 884.819458,622.741089 
	C884.819458,615.007263 884.819458,607.768982 884.819458,599.891357 
	C905.603760,599.891357 926.299988,599.891357 946.747681,599.891357 
	C946.747681,590.337524 946.747681,581.421814 946.747681,572.412659 
	C914.975220,572.412659 883.559204,572.412659 851.889282,572.412659 
	C851.889282,615.849121 851.889282,659.069641 851.889282,702.399109 
	C884.078247,702.399109 915.966431,702.399109 947.923218,702.399109 
	C947.923218,693.157837 947.923218,684.238342 947.923218,674.849609 
	C926.755127,674.849609 905.845520,674.849609 884.818359,674.849609 
	C884.818359,666.315613 884.818359,658.257263 884.818359,649.668152 
	C903.854004,649.668152 922.581665,649.668152 941.345642,649.668152 
	C941.345642,640.430176 941.345642,631.732544 941.345642,622.741028 
	C934.466248,622.741028 927.983093,622.741028 920.499878,622.741089 
M1568.499023,702.719299 
	C1574.621704,702.719299 1580.744385,702.719299 1587.050537,702.719299 
	C1587.050537,693.205811 1587.050537,684.180786 1587.050537,674.661011 
	C1565.770996,674.661011 1544.866455,674.661011 1524.150146,674.661011 
	C1524.150146,666.087708 1524.150146,658.018982 1524.150146,649.612549 
	C1543.163818,649.612549 1561.775635,649.612549 1580.590576,649.612549 
	C1580.590576,640.530762 1580.590576,631.807800 1580.590576,622.556519 
	C1561.546753,622.556519 1542.804810,622.556519 1524.087402,622.556519 
	C1524.087402,614.787109 1524.087402,607.553345 1524.087402,599.808716 
	C1544.985718,599.808716 1565.547729,599.808716 1585.883789,599.808716 
	C1585.883789,590.368835 1585.883789,581.452148 1585.883789,572.477234 
	C1554.093994,572.477234 1522.676147,572.477234 1491.199951,572.477234 
	C1491.199951,615.967590 1491.199951,659.175720 1491.199951,702.719238 
	C1516.884399,702.719238 1542.191895,702.719238 1568.499023,702.719299 
M1239.183960,763.500366 
	C1239.183960,757.388245 1239.183960,751.276062 1239.183960,745.072388 
	C1227.924194,745.072388 1217.207520,745.072388 1206.106689,745.072388 
	C1206.106689,747.187622 1206.107300,748.987854 1206.106689,750.788025 
	C1206.097290,775.943542 1206.175049,801.099548 1206.036987,826.254333 
	C1205.978027,837.012024 1199.748413,844.843750 1190.077515,847.054749 
	C1173.326782,850.884399 1160.921509,841.114075 1160.876221,823.916260 
	C1160.811768,799.427185 1160.858765,774.937805 1160.858154,750.448547 
	C1160.858154,748.672058 1160.858154,746.895630 1160.858154,744.984985 
	C1149.660645,744.984985 1139.072632,744.984985 1128.439087,744.984985 
	C1128.272583,745.658569 1128.057007,746.123352 1128.057007,746.588074 
	C1128.057251,773.242676 1127.699463,799.904480 1128.209351,826.549622 
	C1128.624878,848.268005 1141.974243,866.190735 1161.942749,873.409180 
	C1173.842773,877.710876 1186.084473,878.215576 1198.354736,875.513123 
	C1222.491577,870.197021 1238.601929,850.736572 1239.045898,825.971313 
	C1239.413208,805.486755 1239.161499,784.991089 1239.183960,763.500366 
M491.242950,654.939575 
	C491.730743,654.835449 492.224640,654.754028 492.705414,654.623962 
	C514.702820,648.671326 526.385681,632.653259 524.856812,610.548279 
	C523.429199,589.906738 509.082428,574.815063 487.094910,572.981689 
	C471.051575,571.643982 454.836456,572.354492 438.697571,572.183044 
	C433.584869,572.128723 428.471130,572.174622 423.223969,572.174622 
	C423.223969,615.889893 423.223969,659.074280 423.223969,702.290161 
	C434.228912,702.290161 444.936157,702.290161 456.092743,702.290161 
	C456.092743,686.668396 456.092743,671.436462 456.092743,655.037659 
	C467.828735,655.037659 479.109039,655.037659 491.242950,654.939575 
M1404.939331,700.721863 
	C1406.441650,701.376160 1407.929321,702.553101 1409.448730,702.595581 
	C1416.607788,702.795654 1423.783203,702.488098 1430.936523,702.770752 
	C1434.341553,702.905273 1435.846558,701.777954 1437.050781,698.587891 
	C1452.427734,657.854248 1467.963745,617.180725 1483.443481,576.485840 
	C1483.940796,575.178162 1484.266602,573.805115 1484.759521,572.174438 
	C1474.591431,572.174438 1464.925049,572.389832 1455.276855,572.066589 
	C1451.510864,571.940430 1450.144165,573.407043 1449.002563,576.680298 
	C1440.466675,601.157593 1431.755371,625.573792 1423.086914,650.004883 
	C1422.526855,651.583069 1421.866821,653.125854 1420.871216,655.656006 
	C1419.902832,652.996948 1419.377319,651.603088 1418.885742,650.197266 
	C1410.273560,625.570435 1401.707031,600.927490 1392.963257,576.347534 
	C1392.381958,574.713623 1390.496826,572.401611 1389.157593,572.360168 
	C1378.546021,572.031555 1367.919800,572.177307 1356.488403,572.177307 
	C1372.702637,615.180603 1388.687012,657.574341 1404.939331,700.721863 
M1442.001465,744.349243 
	C1411.566406,752.676025 1391.460693,775.784790 1390.018433,804.096436 
	C1388.389526,836.070923 1404.385864,861.458313 1433.065308,872.414795 
	C1458.981445,882.315613 1494.766113,875.740601 1508.332764,859.049072 
	C1501.139771,851.851990 1493.998779,844.706909 1486.850220,837.554321 
	C1470.239258,853.003296 1444.173828,849.668823 1432.947266,836.996216 
	C1419.933350,822.305786 1420.188477,796.273987 1433.497925,781.948792 
	C1444.716064,769.874268 1471.176636,767.139771 1485.859863,781.955566 
	C1493.100220,774.713623 1500.341187,767.471130 1507.704712,760.105957 
	C1506.583252,759.191833 1505.091553,757.876648 1503.500977,756.694519 
	C1485.221436,743.108704 1464.729248,740.186340 1442.001465,744.349243 
M708.682068,815.331482 
	C722.625000,792.043823 736.567932,768.756104 750.940308,744.751221 
	C739.734680,744.751221 729.735901,744.992920 719.758362,744.637146 
	C715.522400,744.486084 713.213501,745.773071 711.201965,749.523438 
	C704.227173,762.527161 696.871216,775.326416 689.376038,788.711182 
	C688.233398,786.836060 687.343872,785.468445 686.544495,784.049988 
	C679.765137,772.020935 673.037720,759.962341 666.182678,747.976624 
	C665.450439,746.696289 664.019653,744.925415 662.883545,744.903503 
	C651.137024,744.677612 639.384521,744.764648 626.903320,744.764648 
	C628.130188,746.883911 628.926758,748.294128 629.754944,749.685547 
	C641.755005,769.846558 653.470581,790.185547 665.903076,810.076355 
	C670.960205,818.167236 673.445923,826.199951 672.956665,835.785645 
	C672.297852,848.694580 672.793213,861.662415 672.793213,874.631836 
	C684.008911,874.631836 694.713806,874.631836 705.696472,874.631836 
	C705.696472,857.949829 705.564880,841.635315 705.811279,825.326599 
	C705.858582,822.193359 707.390198,819.082397 708.682068,815.331482 
M1285.019775,828.499207 
	C1285.019775,800.737976 1285.019775,772.976746 1285.019775,745.099854 
	C1273.844604,745.099854 1263.140991,745.099854 1252.305664,745.099854 
	C1252.305664,788.461609 1252.305664,831.505066 1252.305664,874.778931 
	C1281.907715,874.778931 1311.280273,874.778931 1340.688721,874.778931 
	C1340.688721,865.340149 1340.688721,856.142090 1340.688721,846.642456 
	C1322.048218,846.642456 1303.779419,846.642456 1285.019775,846.642456 
	C1285.019775,840.728760 1285.019775,835.113647 1285.019775,828.499207 
M1351.021240,599.500000 
	C1351.021240,590.556702 1351.021240,581.613464 1351.021240,572.527222 
	C1339.820557,572.527222 1329.114014,572.527222 1318.424805,572.527222 
	C1318.424805,616.028564 1318.424805,659.199280 1318.424805,702.473328 
	C1329.367310,702.473328 1339.950806,702.473328 1351.021240,702.473328 
	C1351.021240,668.320862 1351.021240,634.410400 1351.021240,599.500000 
M1369.484253,875.018188 
	C1373.261230,875.018188 1377.038208,875.018188 1380.740479,875.018188 
	C1380.740479,831.283936 1380.740479,788.108521 1380.740479,745.092712 
	C1369.773560,745.092712 1359.185303,745.092712 1348.419678,745.092712 
	C1348.419678,788.446472 1348.419678,831.485352 1348.419678,875.018188 
	C1355.261841,875.018188 1361.876099,875.018188 1369.484253,875.018188 
z"/>
<path fill="#FFFEFE" opacity="1.000000" stroke="none" 
	d="
M1079.785400,758.206055 
	C1094.707520,797.172119 1109.495117,835.773865 1124.435181,874.773438 
	C1112.744385,874.773438 1101.650513,874.773438 1090.135498,874.773438 
	C1087.976196,868.519775 1085.664185,862.147034 1083.601929,855.694458 
	C1082.771240,853.095032 1081.562012,852.068054 1078.665039,852.105103 
	C1065.003906,852.279785 1051.337524,852.299194 1037.677246,852.096191 
	C1034.505859,852.049072 1033.366333,853.258850 1032.481934,856.033691 
	C1030.466675,862.356812 1028.102173,868.568665 1025.817749,874.999695 
	C1004.020874,874.999695 982.368469,875.064331 960.718628,874.858154 
	C959.236084,874.844055 957.350159,873.093750 956.365601,871.660583 
	C946.093323,856.707092 935.973145,841.648987 925.791321,826.633179 
	C924.709473,825.037659 923.503357,823.526367 921.320923,822.311707 
	C921.320923,839.636719 921.320923,856.961731 921.320923,874.642700 
	C910.016418,874.642700 899.295044,874.642700 888.278503,874.642700 
	C888.278503,831.642639 888.278503,788.570923 888.278503,745.141968 
	C888.910522,745.029541 889.665588,744.777954 890.420715,744.777954 
	C908.915833,744.779114 927.426514,744.379578 945.898132,745.049683 
	C952.854614,745.302002 960.202942,746.983948 966.531555,749.862976 
	C981.469788,756.658997 988.765991,768.899414 988.021179,785.470825 
	C987.310486,801.283813 978.859924,811.740479 964.743835,818.030273 
	C962.481201,819.038452 960.091675,819.761658 956.905945,820.930176 
	C969.085571,837.527100 981.112976,853.916626 993.589783,870.918640 
	C994.511658,868.758423 995.283997,867.084229 995.949646,865.368652 
	C1010.978882,826.637085 1026.041260,787.918335 1040.936035,749.135193 
	C1042.205444,745.829773 1043.701050,744.512512 1047.340942,744.659485 
	C1054.993286,744.968567 1062.671021,744.902161 1070.329468,744.680847 
	C1073.437500,744.591064 1075.228271,745.328857 1076.109375,748.529053 
	C1076.987061,751.716736 1078.446655,754.744141 1079.785400,758.206055 
M941.886902,769.265503 
	C934.982056,769.265503 928.077209,769.265503 921.206116,769.265503 
	C921.206116,779.286072 921.206116,788.842773 921.206116,799.168701 
	C929.244080,798.780334 937.029785,798.831299 944.696289,797.900146 
	C950.953369,797.140076 954.461121,792.740295 955.361145,786.463867 
	C956.635498,777.575989 952.321289,771.737061 941.886902,769.265503 
M1068.001709,810.492920 
	C1064.914673,801.566833 1061.827637,792.640747 1058.375732,782.659729 
	C1053.098877,797.679260 1048.220215,811.565613 1043.120117,826.082336 
	C1048.623169,826.082336 1053.399536,826.082336 1058.176025,826.082336 
	C1063.062134,826.082336 1067.948242,826.082336 1073.351440,826.082336 
	C1071.456665,820.627380 1069.829224,815.941833 1068.001709,810.492920 
z"/>
<path fill="#FFFCFD" opacity="1.000000" stroke="none" 
	d="
M826.657715,632.687561 
	C819.552795,654.912476 812.542114,676.747864 805.701050,698.636414 
	C804.760132,701.647095 803.472778,702.930420 800.163086,702.765564 
	C794.346069,702.475891 788.494995,702.487061 782.676208,702.758179 
	C779.127747,702.923523 777.517334,701.934814 776.471680,698.257935 
	C769.701660,674.453735 762.615112,650.739624 755.179321,625.455444 
	C754.176514,628.552856 753.557312,630.310364 753.036865,632.096619 
	C746.621216,654.116272 740.142395,676.118103 733.894287,698.185303 
	C732.901917,701.689941 731.406860,702.970581 727.724060,702.774109 
	C721.576904,702.446045 715.390320,702.865051 709.241455,702.553467 
	C707.762024,702.478455 705.473389,701.058228 705.059875,699.773071 
	C691.622253,658.010925 678.367798,616.189880 665.102966,574.372131 
	C664.960632,573.923340 665.042847,573.403198 665.002808,572.542480 
	C675.464966,572.542480 685.845093,572.542480 697.018494,572.542480 
	C704.357178,597.203979 711.823547,622.294312 719.626770,648.516724 
	C727.299805,622.419922 734.673889,597.339661 742.072937,572.174805 
	C749.808105,572.174805 757.137817,572.351379 764.452209,572.093323 
	C767.652283,571.980408 768.650696,573.263245 769.471802,576.112671 
	C776.327393,599.903015 783.359924,623.642456 790.604065,648.299438 
	C791.526978,645.765015 792.275452,644.005371 792.814758,642.183655 
	C799.278381,620.351624 805.786438,598.531921 812.074463,576.649231 
	C813.074585,573.168457 814.567139,571.956848 818.243408,572.078125 
	C827.219055,572.374084 836.211060,572.174622 845.862610,572.174622 
	C839.418457,592.510986 833.112000,612.412903 826.657715,632.687561 
z"/>
<path fill="#FFFDFD" opacity="1.000000" stroke="none" 
	d="
M1111.000000,572.175781 
	C1124.636475,572.190369 1137.780029,571.789795 1150.574951,575.833008 
	C1180.152100,585.179565 1197.809204,610.900452 1195.816772,642.013306 
	C1193.905518,671.858276 1172.942505,695.481750 1143.208862,700.920593 
	C1137.187500,702.021973 1130.988281,702.527405 1124.861938,702.605957 
	C1107.602661,702.827271 1090.338745,702.683289 1072.829834,702.683289 
	C1072.829834,658.946960 1072.829834,615.754150 1072.829834,572.175781 
	C1085.587646,572.175781 1098.043823,572.175781 1111.000000,572.175781 
M1105.959839,673.852600 
	C1114.095581,673.918640 1122.244629,674.310913 1130.364380,673.982117 
	C1146.802124,673.316467 1158.151367,663.527893 1161.121582,647.268433 
	C1162.095459,641.936584 1162.229126,636.313477 1161.819946,630.893616 
	C1160.755249,616.792603 1151.765869,604.977722 1138.514893,602.452209 
	C1127.889282,600.427124 1116.813354,600.764648 1105.481079,600.023926 
	C1105.481079,625.174805 1105.481079,649.112793 1105.959839,673.852600 
z"/>
<path fill="#FFFEFE" opacity="1.000000" stroke="none" 
	d="
M758.208496,744.774109 
	C777.836914,744.828247 796.991577,744.579651 816.129089,745.040527 
	C847.411438,745.793884 872.636230,767.265930 878.494446,797.562195 
	C885.660645,834.623108 860.767883,869.826477 823.296448,873.750732 
	C805.329773,875.632324 787.065979,874.687195 768.936157,874.991333 
	C764.814453,875.060486 760.690552,875.001587 756.098511,875.001587 
	C756.098511,873.112793 756.098511,871.662903 756.098511,870.213013 
	C756.098511,830.084839 756.078796,789.956604 756.167419,749.828613 
	C756.171143,748.147949 757.184143,746.469482 758.208496,744.774109 
M814.096558,773.147278 
	C805.837524,773.147278 797.578491,773.147278 789.279297,773.147278 
	C789.279297,797.843994 789.279297,822.080566 789.279297,847.328430 
	C799.794373,846.742920 810.115723,846.811829 820.234375,845.413635 
	C829.337891,844.155762 836.445618,838.851990 841.054077,830.609619 
	C854.872498,805.894836 842.505981,778.631958 814.096558,773.147278 
z"/>
<path fill="#FFFDFD" opacity="1.000000" stroke="none" 
	d="
M534.806396,671.151367 
	C509.242249,623.889709 541.039673,570.187500 594.353027,569.963684 
	C629.185425,569.817444 655.947815,589.890442 663.473389,621.807007 
	C673.242615,663.239258 643.424805,702.965271 600.885925,704.865906 
	C572.754517,706.122803 550.242432,695.842346 534.806396,671.151367 
M624.085083,612.492432 
	C614.225647,600.221069 601.164246,597.236877 586.458618,600.103333 
	C573.545776,602.620300 564.882751,610.704041 561.654968,623.271729 
	C559.879272,630.185669 559.605164,637.785217 560.200439,644.947144 
	C561.535278,661.008057 573.502014,673.100525 588.727722,675.038208 
	C607.844727,677.471069 622.744263,670.001282 628.449036,654.135742 
	C633.514954,640.046631 632.984131,626.066040 624.085083,612.492432 
z"/>
<path fill="#FFFCFC" opacity="1.000000" stroke="none" 
	d="
M1231.819336,702.687134 
	C1222.536377,702.687073 1213.734741,702.687073 1204.591553,702.687073 
	C1204.591553,659.077820 1204.591553,615.881897 1204.591553,572.172607 
	C1209.580811,572.172607 1214.370239,572.114441 1219.157715,572.183105 
	C1235.806396,572.421814 1252.553833,571.649292 1269.080933,573.203552 
	C1298.065063,575.929260 1313.858521,606.677734 1299.304810,630.437988 
	C1293.398926,640.080261 1284.298828,645.225891 1273.212891,648.411621 
	C1286.371826,666.360718 1299.321655,684.024597 1313.003662,702.687195 
	C1305.234741,702.687195 1298.375122,701.842102 1291.807373,702.867371 
	C1279.083496,704.853760 1271.395020,699.995789 1265.232178,688.843933 
	C1258.416626,676.511353 1249.639160,665.261719 1241.683105,653.562805 
	C1240.740723,652.177368 1239.590698,650.932983 1238.536987,649.623169 
	C1238.120850,649.802185 1237.704712,649.981140 1237.288574,650.160095 
	C1237.288574,667.501343 1237.288574,684.842590 1237.288574,702.432922 
	C1235.224487,702.538147 1233.762573,702.612671 1231.819336,702.687134 
M1264.462280,598.696716 
	C1255.514404,597.813538 1246.566528,596.930298 1237.429077,596.028381 
	C1237.429077,606.931335 1237.429077,616.346924 1237.429077,626.137451 
	C1244.144409,626.137451 1250.605713,626.305664 1257.054688,626.093750 
	C1264.696167,625.842834 1269.365601,622.521545 1271.242065,616.488098 
	C1273.364868,609.662476 1271.297241,603.721680 1264.462280,598.696716 
z"/>
<path fill="#FFFDFD" opacity="1.000000" stroke="none" 
	d="
M562.000244,822.049744 
	C555.192322,822.049744 548.884277,822.049744 542.056641,822.049744 
	C542.056641,839.684143 542.056641,857.062561 542.056641,874.726379 
	C530.820557,874.726379 520.104614,874.726379 509.169983,874.726379 
	C509.169983,831.508545 509.169983,788.445862 509.169983,745.081055 
	C519.995422,745.081055 530.701172,745.081055 541.889771,745.081055 
	C541.889771,761.512390 541.889771,777.756165 541.889771,794.237244 
	C557.617432,794.237244 572.864441,794.237244 588.631714,794.237244 
	C588.631714,777.838013 588.631714,761.606750 588.631714,745.080811 
	C599.726624,745.080811 610.307678,745.080811 621.290710,745.080811 
	C621.290710,788.239075 621.290710,831.403748 621.290710,874.793457 
	C610.584839,874.793457 599.994202,874.793457 588.859863,874.793457 
	C588.859863,857.332581 588.859863,839.955444 588.859863,822.049744 
	C579.717834,822.049744 571.109009,822.049744 562.000244,822.049744 
z"/>
<path fill="#FFFCFC" opacity="1.000000" stroke="none" 
	d="
M998.000000,572.173584 
	C1008.611633,572.791870 1018.998779,572.147583 1028.780029,574.281067 
	C1051.921265,579.328430 1064.184570,601.348694 1057.056030,623.139771 
	C1053.386475,634.357361 1045.413208,641.487915 1034.798462,645.961792 
	C1032.660767,646.862793 1030.419067,647.517151 1027.663452,648.481995 
	C1040.797363,666.393005 1053.808716,684.136841 1067.403076,702.675781 
	C1054.636719,702.675781 1042.882324,702.781128 1031.135376,702.532654 
	C1029.780029,702.504028 1028.118286,700.745178 1027.186523,699.385559 
	C1016.836304,684.282532 1006.604980,669.098022 996.331604,653.942261 
	C995.353149,652.498840 994.307373,651.100952 993.292908,649.681946 
	C992.884216,649.809143 992.475525,649.936340 992.066833,650.063538 
	C992.066833,667.363220 992.066833,684.662964 992.066833,702.319336 
	C980.794067,702.319336 970.220520,702.319336 959.233704,702.319336 
	C959.233704,659.190979 959.233704,615.990906 959.233704,572.173584 
	C971.952026,572.173584 984.726013,572.173584 998.000000,572.173584 
M1020.718811,623.407349 
	C1026.437988,619.328491 1027.070190,613.443542 1025.786865,607.340881 
	C1024.624268,601.812317 1020.627502,597.960266 1015.147400,597.466003 
	C1007.484192,596.774841 999.711975,597.291687 991.990784,597.291687 
	C991.990784,606.935120 991.990784,616.340942 991.990784,626.454773 
	C1001.529541,625.236206 1011.063721,628.288696 1020.718811,623.407349 
z"/>
<path fill="#FFFDFD" opacity="1.000000" stroke="none" 
	d="
M920.999878,622.741089 
	C927.983093,622.741028 934.466248,622.741028 941.345642,622.741028 
	C941.345642,631.732544 941.345642,640.430176 941.345642,649.668152 
	C922.581665,649.668152 903.854004,649.668152 884.818359,649.668152 
	C884.818359,658.257263 884.818359,666.315613 884.818359,674.849609 
	C905.845520,674.849609 926.755127,674.849609 947.923218,674.849609 
	C947.923218,684.238342 947.923218,693.157837 947.923218,702.399109 
	C915.966431,702.399109 884.078247,702.399109 851.889282,702.399109 
	C851.889282,659.069641 851.889282,615.849121 851.889282,572.412659 
	C883.559204,572.412659 914.975220,572.412659 946.747681,572.412659 
	C946.747681,581.421814 946.747681,590.337524 946.747681,599.891357 
	C926.299988,599.891357 905.603760,599.891357 884.819458,599.891357 
	C884.819458,607.768982 884.819458,615.007263 884.819458,622.741089 
	C896.918762,622.741089 908.709351,622.741089 920.999878,622.741089 
z"/>
<path fill="#FFFCFD" opacity="1.000000" stroke="none" 
	d="
M1567.999268,702.719238 
	C1542.191895,702.719238 1516.884399,702.719238 1491.199951,702.719238 
	C1491.199951,659.175720 1491.199951,615.967590 1491.199951,572.477234 
	C1522.676147,572.477234 1554.093994,572.477234 1585.883789,572.477234 
	C1585.883789,581.452148 1585.883789,590.368835 1585.883789,599.808716 
	C1565.547729,599.808716 1544.985718,599.808716 1524.087402,599.808716 
	C1524.087402,607.553345 1524.087402,614.787109 1524.087402,622.556519 
	C1542.804810,622.556519 1561.546753,622.556519 1580.590576,622.556519 
	C1580.590576,631.807800 1580.590576,640.530762 1580.590576,649.612549 
	C1561.775635,649.612549 1543.163818,649.612549 1524.150146,649.612549 
	C1524.150146,658.018982 1524.150146,666.087708 1524.150146,674.661011 
	C1544.866455,674.661011 1565.770996,674.661011 1587.050537,674.661011 
	C1587.050537,684.180786 1587.050537,693.205811 1587.050537,702.719299 
	C1580.744385,702.719299 1574.621704,702.719299 1567.999268,702.719238 
z"/>
<path fill="#FFFDFD" opacity="1.000000" stroke="none" 
	d="
M1239.183960,764.000366 
	C1239.161499,784.991089 1239.413208,805.486755 1239.045898,825.971313 
	C1238.601929,850.736572 1222.491577,870.197021 1198.354736,875.513123 
	C1186.084473,878.215576 1173.842773,877.710876 1161.942749,873.409180 
	C1141.974243,866.190735 1128.624878,848.268005 1128.209351,826.549622 
	C1127.699463,799.904480 1128.057251,773.242676 1128.057007,746.588074 
	C1128.057007,746.123352 1128.272583,745.658569 1128.439087,744.984985 
	C1139.072632,744.984985 1149.660645,744.984985 1160.858154,744.984985 
	C1160.858154,746.895630 1160.858154,748.672058 1160.858154,750.448547 
	C1160.858765,774.937805 1160.811768,799.427185 1160.876221,823.916260 
	C1160.921509,841.114075 1173.326782,850.884399 1190.077515,847.054749 
	C1199.748413,844.843750 1205.978027,837.012024 1206.036987,826.254333 
	C1206.175049,801.099548 1206.097290,775.943542 1206.106689,750.788025 
	C1206.107300,748.987854 1206.106689,747.187622 1206.106689,745.072388 
	C1217.207520,745.072388 1227.924194,745.072388 1239.183960,745.072388 
	C1239.183960,751.276062 1239.183960,757.388245 1239.183960,764.000366 
z"/>
<path fill="#FFFCFD" opacity="1.000000" stroke="none" 
	d="
M490.816162,654.988647 
	C479.109039,655.037659 467.828735,655.037659 456.092743,655.037659 
	C456.092743,671.436462 456.092743,686.668396 456.092743,702.290161 
	C444.936157,702.290161 434.228912,702.290161 423.223969,702.290161 
	C423.223969,659.074280 423.223969,615.889893 423.223969,572.174622 
	C428.471130,572.174622 433.584869,572.128723 438.697571,572.183044 
	C454.836456,572.354492 471.051575,571.643982 487.094910,572.981689 
	C509.082428,574.815063 523.429199,589.906738 524.856812,610.548279 
	C526.385681,632.653259 514.702820,648.671326 492.705414,654.623962 
	C492.224640,654.754028 491.730743,654.835449 490.816162,654.988647 
M489.944794,604.854675 
	C486.411957,602.306458 483.127838,598.142822 479.293579,597.552551 
	C471.741211,596.389893 463.883575,597.209961 456.197876,597.209961 
	C456.197876,608.709229 456.197876,619.929993 456.197876,631.410706 
	C461.991821,631.410706 467.463226,631.441406 472.934174,631.404846 
	C488.640625,631.299988 496.004364,620.302368 489.944794,604.854675 
z"/>
<path fill="#FFFCFD" opacity="1.000000" stroke="none" 
	d="
M1404.805420,700.344971 
	C1388.687012,657.574341 1372.702637,615.180603 1356.488403,572.177307 
	C1367.919800,572.177307 1378.546021,572.031555 1389.157593,572.360168 
	C1390.496826,572.401611 1392.381958,574.713623 1392.963257,576.347534 
	C1401.707031,600.927490 1410.273560,625.570435 1418.885742,650.197266 
	C1419.377319,651.603088 1419.902832,652.996948 1420.871216,655.656006 
	C1421.866821,653.125854 1422.526855,651.583069 1423.086914,650.004883 
	C1431.755371,625.573792 1440.466675,601.157593 1449.002563,576.680298 
	C1450.144165,573.407043 1451.510864,571.940430 1455.276855,572.066589 
	C1464.925049,572.389832 1474.591431,572.174438 1484.759521,572.174438 
	C1484.266602,573.805115 1483.940796,575.178162 1483.443481,576.485840 
	C1467.963745,617.180725 1452.427734,657.854248 1437.050781,698.587891 
	C1435.846558,701.777954 1434.341553,702.905273 1430.936523,702.770752 
	C1423.783203,702.488098 1416.607788,702.795654 1409.448730,702.595581 
	C1407.929321,702.553101 1406.441650,701.376160 1404.805420,700.344971 
z"/>
<path fill="#FFFDFD" opacity="1.000000" stroke="none" 
	d="
M1442.409424,744.251709 
	C1464.729248,740.186340 1485.221436,743.108704 1503.500977,756.694519 
	C1505.091553,757.876648 1506.583252,759.191833 1507.704712,760.105957 
	C1500.341187,767.471130 1493.100220,774.713623 1485.859863,781.955566 
	C1471.176636,767.139771 1444.716064,769.874268 1433.497925,781.948792 
	C1420.188477,796.273987 1419.933350,822.305786 1432.947266,836.996216 
	C1444.173828,849.668823 1470.239258,853.003296 1486.850220,837.554321 
	C1493.998779,844.706909 1501.139771,851.851990 1508.332764,859.049072 
	C1494.766113,875.740601 1458.981445,882.315613 1433.065308,872.414795 
	C1404.385864,861.458313 1388.389526,836.070923 1390.018433,804.096436 
	C1391.460693,775.784790 1411.566406,752.676025 1442.409424,744.251709 
z"/>
<path fill="#FFFDFD" opacity="1.000000" stroke="none" 
	d="
M708.459595,815.646362 
	C707.390198,819.082397 705.858582,822.193359 705.811279,825.326599 
	C705.564880,841.635315 705.696472,857.949829 705.696472,874.631836 
	C694.713806,874.631836 684.008911,874.631836 672.793213,874.631836 
	C672.793213,861.662415 672.297852,848.694580 672.956665,835.785645 
	C673.445923,826.199951 670.960205,818.167236 665.903076,810.076355 
	C653.470581,790.185547 641.755005,769.846558 629.754944,749.685547 
	C628.926758,748.294128 628.130188,746.883911 626.903320,744.764648 
	C639.384521,744.764648 651.137024,744.677612 662.883545,744.903503 
	C664.019653,744.925415 665.450439,746.696289 666.182678,747.976624 
	C673.037720,759.962341 679.765137,772.020935 686.544495,784.049988 
	C687.343872,785.468445 688.233398,786.836060 689.376038,788.711182 
	C696.871216,775.326416 704.227173,762.527161 711.201965,749.523438 
	C713.213501,745.773071 715.522400,744.486084 719.758362,744.637146 
	C729.735901,744.992920 739.734680,744.751221 750.940308,744.751221 
	C736.567932,768.756104 722.625000,792.043823 708.459595,815.646362 
z"/>
<path fill="#FFFEFE" opacity="1.000000" stroke="none" 
	d="
M1285.019775,828.998840 
	C1285.019775,835.113647 1285.019775,840.728760 1285.019775,846.642456 
	C1303.779419,846.642456 1322.048218,846.642456 1340.688721,846.642456 
	C1340.688721,856.142090 1340.688721,865.340149 1340.688721,874.778931 
	C1311.280273,874.778931 1281.907715,874.778931 1252.305664,874.778931 
	C1252.305664,831.505066 1252.305664,788.461609 1252.305664,745.099854 
	C1263.140991,745.099854 1273.844604,745.099854 1285.019775,745.099854 
	C1285.019775,772.976746 1285.019775,800.737976 1285.019775,828.998840 
z"/>
<path fill="#FFFDFD" opacity="1.000000" stroke="none" 
	d="
M1351.021240,600.000000 
	C1351.021240,634.410400 1351.021240,668.320862 1351.021240,702.473328 
	C1339.950806,702.473328 1329.367310,702.473328 1318.424805,702.473328 
	C1318.424805,659.199280 1318.424805,616.028564 1318.424805,572.527222 
	C1329.114014,572.527222 1339.820557,572.527222 1351.021240,572.527222 
	C1351.021240,581.613464 1351.021240,590.556702 1351.021240,600.000000 
z"/>
<path fill="#FFFDFD" opacity="1.000000" stroke="none" 
	d="
M1368.987305,875.018188 
	C1361.876099,875.018188 1355.261841,875.018188 1348.419678,875.018188 
	C1348.419678,831.485352 1348.419678,788.446472 1348.419678,745.092712 
	C1359.185303,745.092712 1369.773560,745.092712 1380.740479,745.092712 
	C1380.740479,788.108521 1380.740479,831.283936 1380.740479,875.018188 
	C1377.038208,875.018188 1373.261230,875.018188 1368.987305,875.018188 
z"/>
<path fill="#DC0C2A" opacity="1.000000" stroke="none" 
	d="
M942.315796,769.327148 
	C952.321289,771.737061 956.635498,777.575989 955.361145,786.463867 
	C954.461121,792.740295 950.953369,797.140076 944.696289,797.900146 
	C937.029785,798.831299 929.244080,798.780334 921.206116,799.168701 
	C921.206116,788.842773 921.206116,779.286072 921.206116,769.265503 
	C928.077209,769.265503 934.982056,769.265503 942.315796,769.327148 
z"/>
<path fill="#DC0C2A" opacity="1.000000" stroke="none" 
	d="
M1068.101807,810.874573 
	C1069.829224,815.941833 1071.456665,820.627380 1073.351440,826.082336 
	C1067.948242,826.082336 1063.062134,826.082336 1058.176025,826.082336 
	C1053.399536,826.082336 1048.623169,826.082336 1043.120117,826.082336 
	C1048.220215,811.565613 1053.098877,797.679260 1058.375732,782.659729 
	C1061.827637,792.640747 1064.914673,801.566833 1068.101807,810.874573 
z"/>
<path fill="#DB0B2A" opacity="1.000000" stroke="none" 
	d="
M1105.720459,673.451660 
	C1105.481079,649.112793 1105.481079,625.174805 1105.481079,600.023926 
	C1116.813354,600.764648 1127.889282,600.427124 1138.514893,602.452209 
	C1151.765869,604.977722 1160.755249,616.792603 1161.819946,630.893616 
	C1162.229126,636.313477 1162.095459,641.936584 1161.121582,647.268433 
	C1158.151367,663.527893 1146.802124,673.316467 1130.364380,673.982117 
	C1122.244629,674.310913 1114.095581,673.918640 1105.720459,673.451660 
z"/>
<path fill="#DB0A29" opacity="1.000000" stroke="none" 
	d="
M814.549927,773.182373 
	C842.505981,778.631958 854.872498,805.894836 841.054077,830.609619 
	C836.445618,838.851990 829.337891,844.155762 820.234375,845.413635 
	C810.115723,846.811829 799.794373,846.742920 789.279297,847.328430 
	C789.279297,822.080566 789.279297,797.843994 789.279297,773.147278 
	C797.578491,773.147278 805.837524,773.147278 814.549927,773.182373 
z"/>
<path fill="#DB0A28" opacity="1.000000" stroke="none" 
	d="
M624.306396,612.774963 
	C632.984131,626.066040 633.514954,640.046631 628.449036,654.135742 
	C622.744263,670.001282 607.844727,677.471069 588.727722,675.038208 
	C573.502014,673.100525 561.535278,661.008057 560.200439,644.947144 
	C559.605164,637.785217 559.879272,630.185669 561.654968,623.271729 
	C564.882751,610.704041 573.545776,602.620300 586.458618,600.103333 
	C601.164246,597.236877 614.225647,600.221069 624.306396,612.774963 
z"/>
<path fill="#DB0B2A" opacity="1.000000" stroke="none" 
	d="
M1264.813965,598.862854 
	C1271.297241,603.721680 1273.364868,609.662476 1271.242065,616.488098 
	C1269.365601,622.521545 1264.696167,625.842834 1257.054688,626.093750 
	C1250.605713,626.305664 1244.144409,626.137451 1237.429077,626.137451 
	C1237.429077,616.346924 1237.429077,606.931335 1237.429077,596.028381 
	C1246.566528,596.930298 1255.514404,597.813538 1264.813965,598.862854 
z"/>
<path fill="#DB0A28" opacity="1.000000" stroke="none" 
	d="
M1020.402954,623.626404 
	C1011.063721,628.288696 1001.529541,625.236206 991.990784,626.454773 
	C991.990784,616.340942 991.990784,606.935120 991.990784,597.291687 
	C999.711975,597.291687 1007.484192,596.774841 1015.147400,597.466003 
	C1020.627502,597.960266 1024.624268,601.812317 1025.786865,607.340881 
	C1027.070190,613.443542 1026.437988,619.328491 1020.402954,623.626404 
z"/>
<path fill="#DB0A28" opacity="1.000000" stroke="none" 
	d="
M490.099792,605.211426 
	C496.004364,620.302368 488.640625,631.299988 472.934174,631.404846 
	C467.463226,631.441406 461.991821,631.410706 456.197876,631.410706 
	C456.197876,619.929993 456.197876,608.709229 456.197876,597.209961 
	C463.883575,597.209961 471.741211,596.389893 479.293579,597.552551 
	C483.127838,598.142822 486.411957,602.306458 490.099792,605.211426 
z"/>
</svg>